<svg xmlns="http://www.w3.org/2000/svg" width="81.1" height="81.1" viewBox="0 0 81.1 81.1">
  <g>
    <circle cx="40.6" cy="40.6" r="38" style="fill: #5e4332"/>
    <g>
      <path d="M40.6,0A40.6,40.6,0,1,0,81.1,40.6,40.6,40.6,0,0,0,40.6,0m0,77.3A36.8,36.8,0,1,1,77.3,40.6,36.8,36.8,0,0,1,40.6,77.3" style="fill: #5e4332"/>
      <g>
        <polygon points="16.1 45.3 19.2 47.6 20.9 45.4 20.9 61.6 24.7 61.6 24.7 40.4 40.3 19.8 56.5 40.6 56.5 61.6 60.3 61.6 60.3 45.5 62 47.7 65 45.4 40.3 13.5 16.1 45.3" style="fill: #fff"/>
        <polygon points="29 46.5 32.1 48.8 40.5 37.7 49.1 48.8 52.1 46.5 40.4 31.4 29 46.5" style="fill: #fff"/>
        <polygon points="29 56.7 32.1 59 38.9 50.1 38.9 61.5 42.7 61.5 42.7 50.8 49.1 59 52.1 56.7 40.4 41.7 29 56.7" style="fill: #fff"/>
      </g>
    </g>
  </g>
</svg>
