<?xml version="1.0" encoding="utf-8"?>

<!DOCTYPE svg PUBLIC "-//W3C//DTD SVG 1.1//EN" "http://www.w3.org/Graphics/SVG/1.1/DTD/svg11.dtd">
<!-- Uploaded to: SVG Repo, www.svgrepo.com, Generator: SVG Repo Mixer Tools -->
<svg height="50px" width="50px" version="1.1" id="_x32_" xmlns="http://www.w3.org/2000/svg" xmlns:xlink="http://www.w3.org/1999/xlink" 
	 viewBox="0 0 512 512"  xml:space="preserve">
<style type="text/css">
	.st0{fill:#fff;}
</style>
<g>
	<path class="st0" d="M342.576,0c-14.88,0-26.94,12.061-26.94,26.933v115.434c0,20.276-14.547,31.286-26.999,33.997
		c-2.043,0.442-5.704-0.334-5.704-3.211V26.933C282.932,12.061,270.879,0,256,0c-14.88,0-26.933,12.061-26.933,26.933v146.22
		c0,2.877-3.661,3.653-5.704,3.211c-12.452-2.711-26.999-13.721-26.999-33.997V26.933c0-14.872-12.06-26.933-26.94-26.933
		c-14.88,0-26.94,12.061-26.94,26.933v121.856c0,52.529,39.085,78.903,75.117,89.579c0.842,0.259,5.221,1.268,5.221,3.403
		c0,2.886,0,4.479,0,4.479v47.266h66.358V246.25c0,0,0-1.593,0-4.479c0-2.135,4.379-3.144,5.221-3.403
		c36.032-10.676,75.117-37.05,75.117-89.579V26.933C369.517,12.061,357.456,0,342.576,0z"/>
	<path class="st0" d="M299.022,308.555h-86.043c-5.722,0-10.358,4.645-10.358,10.368v139.656c0,0-0.008,0.026-0.008,0.042
		c0,29.485,23.904,53.38,53.389,53.38c29.475,0,53.38-23.896,53.38-53.38V318.922C309.381,313.2,304.743,308.555,299.022,308.555z
		 M256,465.167c-7.791,0-14.113-6.314-14.113-14.104c0-7.79,6.322-14.112,14.113-14.112c7.79,0,14.112,6.322,14.112,14.112
		C270.112,458.854,263.79,465.167,256,465.167z M256,366.405c-7.791,0-14.113-6.313-14.113-14.104
		c0-7.798,6.322-14.113,14.113-14.113c7.79,0,14.112,6.314,14.112,14.113C270.112,360.092,263.79,366.405,256,366.405z"/>
</g>
</svg>